<?xml version="1.0" standalone="no"?>
<!DOCTYPE svg PUBLIC "-//W3C//DTD SVG 20010904//EN"
 "http://www.w3.org/TR/2001/REC-SVG-20010904/DTD/svg10.dtd">
<svg version="1.0" xmlns="http://www.w3.org/2000/svg"
 width="300.000000pt" height="289.000000pt" viewBox="0 0 300.000000 289.000000"
 preserveAspectRatio="xMidYMid meet">
<metadata>
Created by potrace 1.10, written by Peter Selinger 2001-2011
</metadata>
<g transform="translate(0.000000,289.000000) scale(0.100000,-0.100000)"
fill="#000000" stroke="none">
<path d="M395 1595 l0 -1135 1128 0 1127 0 0 1135 0 1135 -1127 0 -1128 0 0
-1135z m2223 6 c1 -774 -1 -1088 -9 -1097 -9 -11 -206 -13 -1072 -13 -584 0
-1072 2 -1084 5 l-23 6 0 1094 0 1094 1093 -2 1092 -3 3 -1084z"/>
<path d="M1280 2490 c-255 -21 -432 -194 -475 -463 -5 -31 -13 -41 -45 -57
-65 -33 -145 -121 -169 -184 -37 -101 -32 -234 14 -330 10 -21 44 -66 74 -99
54 -58 56 -61 56 -117 0 -70 19 -96 76 -105 l39 -7 0 -223 c0 -143 4 -233 11
-248 21 -46 40 -49 329 -51 361 -1 340 -15 340 226 0 166 0 168 23 172 28 6
57 4 58 -3 1 -3 3 -79 4 -169 3 -228 7 -232 201 -226 103 3 110 5 132 29 26
30 24 16 24 265 0 107 4 202 8 211 5 9 23 19 39 22 42 9 67 37 74 84 l7 41 68
4 c131 7 253 92 310 216 22 49 26 71 26 152 0 85 -3 101 -28 149 -15 30 -42
68 -59 86 -38 39 -146 110 -193 127 -25 9 -37 21 -45 47 -28 84 -106 168 -178
189 -49 15 -113 15 -164 0 -37 -11 -41 -10 -51 7 -6 11 -42 52 -79 91 -73 77
-146 123 -237 147 -83 23 -98 24 -190 17z m254 -73 c83 -39 185 -128 223 -196
15 -25 27 -47 28 -48 1 -2 19 6 40 17 50 26 136 26 191 1 55 -25 111 -94 130
-159 9 -31 23 -56 32 -59 106 -35 217 -114 263 -189 29 -48 42 -142 28 -217
-20 -114 -76 -189 -182 -244 -46 -25 -63 -28 -149 -28 -91 0 -113 -5 -88 -20
14 -9 12 -89 -2 -103 -7 -7 -34 -12 -60 -12 l-48 0 0 -248 c0 -180 -3 -251
-12 -260 -17 -17 -249 -17 -266 0 -8 8 -12 67 -12 200 l0 188 -75 0 -75 0 0
-188 c0 -133 -4 -192 -12 -200 -17 -17 -579 -17 -596 0 -9 9 -12 81 -12 264
l0 253 -35 -6 c-52 -8 -85 17 -85 66 0 25 7 44 20 56 19 17 19 18 -23 45 -119
76 -180 220 -156 369 19 118 80 200 186 248 29 14 51 28 48 33 -12 19 16 137
48 204 95 198 275 296 505 274 53 -5 94 -16 146 -41z"/>
<path d="M1225 2365 c-102 -26 -196 -97 -250 -189 -32 -55 -58 -160 -52 -208
6 -47 -12 -71 -68 -86 -51 -14 -120 -72 -145 -122 -43 -83 -35 -197 19 -283
26 -40 110 -107 135 -107 6 0 128 101 270 225 169 148 265 225 279 225 14 -1
117 -84 277 -225 l255 -224 106 -1 c129 0 195 17 250 67 51 46 77 97 85 165
13 111 -37 192 -157 252 -39 20 -86 38 -105 42 -41 7 -46 14 -51 68 -6 54 -46
122 -83 141 -59 31 -132 16 -185 -38 -31 -32 -57 -17 -93 53 -19 36 -49 84
-68 106 -39 48 -125 108 -185 129 -64 23 -165 27 -234 10z m230 -47 c103 -35
165 -92 226 -206 52 -99 92 -112 161 -54 25 21 42 27 81 27 42 0 52 -4 77 -32
18 -19 32 -52 40 -86 13 -65 36 -88 110 -112 75 -24 145 -72 178 -120 23 -34
26 -50 25 -105 -3 -157 -96 -230 -294 -230 l-99 0 -42 37 c-24 21 -66 58 -93
83 -28 25 -74 65 -104 90 -54 44 -75 63 -199 173 -35 31 -77 59 -93 62 -40 9
-63 -7 -280 -196 -203 -178 -267 -233 -279 -237 -22 -8 -78 33 -110 79 -30 45
-35 60 -38 126 -5 83 13 145 51 181 12 12 53 35 89 52 74 33 88 50 88 107 0
55 26 148 57 206 39 71 111 131 186 156 103 34 161 34 262 -1z"/>
<path d="M1205 1533 c-110 -96 -226 -197 -258 -224 -56 -47 -57 -49 -29 -49
16 0 37 -9 46 -19 16 -17 17 -44 14 -265 l-3 -246 215 0 215 0 -3 184 c-5 238
-13 226 166 226 183 0 172 14 172 -221 l0 -189 55 0 55 0 0 255 c0 243 1 255
20 265 11 6 32 7 47 4 16 -4 26 -4 23 -1 -16 17 -526 457 -530 456 -3 0 -95
-79 -205 -176z m327 34 c59 -50 154 -132 212 -182 57 -49 105 -96 105 -104 1
-8 -6 -22 -14 -31 -12 -13 -15 -59 -15 -247 -1 -193 -4 -232 -16 -237 -25 -10
-34 39 -34 194 0 143 -1 150 -24 177 -24 28 -25 28 -164 31 l-140 3 -34 -29
-33 -30 -2 -159 c-1 -87 -2 -166 -3 -176 0 -16 -13 -17 -177 -15 l-178 3 -3
69 -3 70 27 -27 c28 -28 32 -29 159 -27 75 1 82 2 108 30 25 28 27 37 27 109
0 163 -19 184 -167 179 -77 -3 -96 -7 -122 -26 l-31 -23 0 48 c0 26 -7 61 -15
77 -8 15 -15 34 -15 40 0 10 80 83 274 249 11 10 34 30 51 45 56 51 98 82 109
82 6 0 59 -42 118 -93z m-254 -443 c20 -14 22 -23 22 -110 0 -136 2 -134 -130
-134 -132 0 -130 -2 -130 134 0 120 6 126 130 126 61 0 92 -4 108 -16z"/>
<path d="M1140 1005 c0 -33 2 -35 34 -35 32 0 34 2 34 35 0 33 -2 35 -34 35
-32 0 -34 -2 -34 -35z"/>
<path d="M790 357 c-19 -9 -26 -22 -28 -49 -3 -35 -1 -38 47 -62 27 -14 53
-30 56 -36 13 -21 -17 -41 -59 -40 -58 3 -60 2 -46 -15 19 -23 95 -20 120 5
41 41 21 83 -52 113 -67 28 -40 78 32 62 23 -5 30 -3 30 8 0 26 -60 34 -100
14z"/>
<path d="M1053 360 c-12 -5 -26 -17 -32 -28 -17 -33 -1 -62 50 -87 56 -29 65
-40 48 -62 -10 -11 -26 -14 -62 -10 -40 3 -47 2 -45 -12 2 -12 17 -17 55 -19
42 -2 56 1 72 17 42 42 24 80 -51 114 -66 29 -40 78 32 62 23 -5 30 -3 30 8 0
24 -55 34 -97 17z"/>
<path d="M284 249 c-39 -104 -40 -110 -21 -107 13 2 23 13 27 28 5 22 12 25
52 28 43 3 46 1 56 -27 6 -18 18 -31 28 -31 19 0 20 -4 -28 127 -27 75 -37 93
-53 93 -16 0 -28 -21 -61 -111z m90 -4 c5 -19 2 -21 -30 -21 -38 0 -39 6 -13
73 l11 28 13 -30 c7 -16 15 -39 19 -50z"/>
<path d="M484 250 c27 -96 34 -110 51 -108 15 2 22 18 35 75 8 39 18 74 22 78
3 3 14 -30 24 -75 15 -70 20 -81 37 -78 16 2 25 23 49 107 16 57 26 106 24
109 -17 16 -35 -16 -50 -88 -10 -45 -20 -79 -23 -76 -3 2 -13 40 -22 83 -14
64 -21 78 -37 78 -15 0 -22 -14 -38 -83 -10 -46 -21 -81 -23 -78 -3 2 -9 24
-14 48 -23 101 -30 118 -48 118 -17 0 -16 -8 13 -110z"/>
<path d="M1970 250 c0 -91 3 -110 15 -110 11 0 15 12 15 50 l0 50 55 0 55 0 0
-50 c0 -38 4 -50 15 -50 12 0 15 19 15 110 0 91 -3 110 -15 110 -11 0 -15 -12
-15 -45 l0 -45 -55 0 -55 0 0 45 c0 33 -4 45 -15 45 -12 0 -15 -19 -15 -110z"/>
<path d="M1770 325 c0 -22 -4 -24 -35 -23 -19 1 -38 -2 -41 -5 -4 -3 -15 -2
-25 4 -18 9 -19 5 -19 -76 0 -69 3 -85 15 -85 12 0 15 14 15 65 0 48 3 65 14
65 7 0 28 3 45 6 l31 7 0 -60 c0 -66 11 -83 52 -83 34 0 39 27 6 32 -20 3 -23
10 -26 56 -3 50 -2 52 22 52 15 0 26 6 26 14 0 9 -8 12 -25 8 -22 -4 -25 -1
-25 22 0 16 -5 26 -15 26 -9 0 -15 -9 -15 -25z"/>
<path d="M1251 301 c-7 -5 -22 -6 -32 -4 -17 5 -19 -1 -19 -76 0 -65 3 -81 15
-81 12 0 15 14 15 64 0 67 6 76 51 76 17 0 19 -8 19 -71 0 -61 2 -70 17 -67
14 2 16 13 14 62 -3 63 5 76 47 76 21 0 22 -4 22 -70 0 -63 2 -70 20 -70 18 0
20 7 20 63 0 93 -33 127 -92 96 -14 -8 -23 -8 -31 0 -13 13 -47 14 -66 2z"/>
<path d="M1493 303 c-7 -2 -13 -10 -13 -17 0 -8 15 -12 43 -12 36 1 42 -2 45
-22 3 -20 0 -22 -22 -16 -35 8 -76 -19 -76 -50 0 -34 19 -45 78 -44 l52 1 0
68 c0 48 -5 72 -16 83 -15 15 -65 20 -91 9z m77 -108 c0 -18 -34 -37 -54 -29
-16 6 -21 26 -9 37 13 14 63 7 63 -8z"/>
<path d="M2210 290 c-29 -29 -31 -101 -3 -132 23 -26 85 -24 109 3 29 32 26
105 -5 130 -30 25 -76 24 -101 -1z m84 -26 c3 -9 6 -31 6 -49 0 -41 -28 -62
-60 -45 -23 12 -28 78 -8 98 17 17 55 15 62 -4z"/>
<path d="M2377 303 c-4 -3 -7 -42 -7 -85 0 -73 1 -78 21 -78 21 0 21 4 17 64
-6 68 -1 76 43 76 17 0 19 -8 19 -70 0 -63 2 -70 20 -70 17 0 19 8 22 68 l3
67 30 0 30 0 0 -68 c0 -57 3 -67 18 -67 14 0 17 10 17 69 0 92 -26 120 -82 90
-15 -8 -26 -8 -44 2 -19 10 -29 10 -50 0 -18 -8 -30 -8 -39 -1 -6 5 -15 7 -18
3z"/>
<path d="M2676 289 c-34 -27 -37 -98 -5 -130 26 -26 102 -24 107 4 3 14 0 16
-22 7 -39 -14 -75 4 -76 38 0 10 14 13 53 11 l52 -3 -2 34 c-3 59 -57 78 -107
39z m74 -13 c0 -2 3 -11 6 -20 5 -13 -2 -16 -35 -16 -42 0 -50 7 -29 28 11 11
58 17 58 8z"/>
</g>
</svg>
